<mxfile host="65bd71144e">
    <diagram id="-INeRLYdFhMqCvomsIDb" name="Seite-1">
        <mxGraphModel dx="1374" dy="790" grid="1" gridSize="10" guides="1" tooltips="1" connect="1" arrows="1" fold="1" page="1" pageScale="1" pageWidth="827" pageHeight="1169" math="0" shadow="0">
            <root>
                <mxCell id="0"/>
                <mxCell id="1" parent="0"/>
                <mxCell id="5" value="Kunde" style="shape=umlLifeline;perimeter=lifelinePerimeter;whiteSpace=wrap;html=1;container=1;collapsible=0;recursiveResize=0;outlineConnect=0;" parent="1" vertex="1">
                    <mxGeometry x="90" y="200" width="100" height="680" as="geometry"/>
                </mxCell>
                <mxCell id="10" value="bestellen([artikel])" style="endArrow=open;startArrow=none;endFill=0;startFill=0;endSize=8;html=1;verticalAlign=bottom;labelBackgroundColor=none;" edge="1" parent="5" target="6">
                    <mxGeometry width="160" relative="1" as="geometry">
                        <mxPoint x="50" y="90" as="sourcePoint"/>
                        <mxPoint x="210" y="90" as="targetPoint"/>
                    </mxGeometry>
                </mxCell>
                <mxCell id="6" value="Vertrieb" style="shape=umlLifeline;perimeter=lifelinePerimeter;whiteSpace=wrap;html=1;container=1;collapsible=0;recursiveResize=0;outlineConnect=0;" vertex="1" parent="1">
                    <mxGeometry x="220" y="200" width="100" height="680" as="geometry"/>
                </mxCell>
                <mxCell id="12" value="prüfe([artikel])" style="endArrow=classic;startArrow=none;endFill=1;startFill=0;endSize=8;html=1;verticalAlign=bottom;labelBackgroundColor=none;" edge="1" parent="6" target="7">
                    <mxGeometry width="160" relative="1" as="geometry">
                        <mxPoint x="50" y="130" as="sourcePoint"/>
                        <mxPoint x="210" y="130" as="targetPoint"/>
                    </mxGeometry>
                </mxCell>
                <mxCell id="38" value="versand(bestell_ID)" style="endArrow=open;startArrow=none;endFill=0;startFill=0;endSize=8;html=1;verticalAlign=bottom;labelBackgroundColor=none;" edge="1" parent="6" target="9">
                    <mxGeometry width="160" relative="1" as="geometry">
                        <mxPoint x="50" y="550" as="sourcePoint"/>
                        <mxPoint x="210" y="550" as="targetPoint"/>
                    </mxGeometry>
                </mxCell>
                <mxCell id="7" value="Lager" style="shape=umlLifeline;perimeter=lifelinePerimeter;whiteSpace=wrap;html=1;container=1;collapsible=0;recursiveResize=0;outlineConnect=0;" vertex="1" parent="1">
                    <mxGeometry x="350" y="200" width="100" height="680" as="geometry"/>
                </mxCell>
                <mxCell id="13" value="" style="html=1;points=[];perimeter=orthogonalPerimeter;" vertex="1" parent="7">
                    <mxGeometry x="45" y="130" width="10" height="260" as="geometry"/>
                </mxCell>
                <mxCell id="16" value="reserviere(bestell_ID)" style="endArrow=open;startArrow=none;endFill=0;startFill=0;endSize=8;html=1;verticalAlign=bottom;labelBackgroundColor=none;entryX=1.148;entryY=0.489;entryDx=0;entryDy=0;entryPerimeter=0;" edge="1" parent="7" target="13">
                    <mxGeometry x="-0.005" y="48" width="160" relative="1" as="geometry">
                        <mxPoint x="55" y="190" as="sourcePoint"/>
                        <mxPoint x="215" y="190" as="targetPoint"/>
                        <Array as="points">
                            <mxPoint x="100" y="220"/>
                        </Array>
                        <mxPoint as="offset"/>
                    </mxGeometry>
                </mxCell>
                <mxCell id="19" value="bestellungBearbeitet()" style="endArrow=open;startArrow=none;endFill=0;startFill=0;endSize=8;html=1;verticalAlign=bottom;dashed=1;labelBackgroundColor=none;" edge="1" parent="7" target="6">
                    <mxGeometry width="160" relative="1" as="geometry">
                        <mxPoint x="45" y="390" as="sourcePoint"/>
                        <mxPoint x="205" y="390" as="targetPoint"/>
                    </mxGeometry>
                </mxCell>
                <mxCell id="37" value="reserviere(bestell_ID)" style="endArrow=open;startArrow=none;endFill=0;startFill=0;endSize=8;html=1;verticalAlign=bottom;labelBackgroundColor=none;" edge="1" parent="7">
                    <mxGeometry width="160" relative="1" as="geometry">
                        <mxPoint x="-80" y="510" as="sourcePoint"/>
                        <mxPoint x="50" y="510" as="targetPoint"/>
                    </mxGeometry>
                </mxCell>
                <mxCell id="8" value="Lieferant" style="shape=umlLifeline;perimeter=lifelinePerimeter;whiteSpace=wrap;html=1;container=1;collapsible=0;recursiveResize=0;outlineConnect=0;" vertex="1" parent="1">
                    <mxGeometry x="490" y="200" width="100" height="680" as="geometry"/>
                </mxCell>
                <mxCell id="36" value="artikelgeliefert()" style="endArrow=open;startArrow=none;endFill=0;startFill=0;endSize=8;html=1;verticalAlign=bottom;labelBackgroundColor=none;" edge="1" parent="8" target="6">
                    <mxGeometry x="0.4064" width="160" relative="1" as="geometry">
                        <mxPoint x="50" y="450" as="sourcePoint"/>
                        <mxPoint x="210" y="450" as="targetPoint"/>
                        <mxPoint as="offset"/>
                    </mxGeometry>
                </mxCell>
                <mxCell id="9" value="Logistik" style="shape=umlLifeline;perimeter=lifelinePerimeter;whiteSpace=wrap;html=1;container=1;collapsible=0;recursiveResize=0;outlineConnect=0;" vertex="1" parent="1">
                    <mxGeometry x="630" y="200" width="100" height="680" as="geometry"/>
                </mxCell>
                <mxCell id="39" value="versendet()" style="endArrow=open;startArrow=none;endFill=0;startFill=0;endSize=8;html=1;verticalAlign=bottom;labelBackgroundColor=none;" edge="1" parent="9" target="6">
                    <mxGeometry width="160" relative="1" as="geometry">
                        <mxPoint x="50" y="600" as="sourcePoint"/>
                        <mxPoint x="210" y="600" as="targetPoint"/>
                    </mxGeometry>
                </mxCell>
                <mxCell id="17" value="bestelle(artikel)" style="endArrow=open;startArrow=none;endFill=0;startFill=0;endSize=8;html=1;verticalAlign=bottom;labelBackgroundColor=none;exitX=1.286;exitY=0.735;exitDx=0;exitDy=0;exitPerimeter=0;" edge="1" parent="1" source="13" target="8">
                    <mxGeometry width="160" relative="1" as="geometry">
                        <mxPoint x="405" y="500" as="sourcePoint"/>
                        <mxPoint x="565" y="500" as="targetPoint"/>
                    </mxGeometry>
                </mxCell>
                <mxCell id="20" value="alt [verfügbar]" style="shape=umlFrame;tabWidth=110;tabHeight=30;tabPosition=left;html=1;boundedLbl=1;labelInHeader=1;width=140;height=30;" vertex="1" parent="1">
                    <mxGeometry x="405" y="360" width="180" height="200" as="geometry"/>
                </mxCell>
                <mxCell id="26" value="" style="html=1;verticalAlign=bottom;labelBackgroundColor=none;endArrow=block;endFill=1;" edge="1" parent="1" target="20">
                    <mxGeometry width="160" relative="1" as="geometry">
                        <mxPoint x="405" y="480" as="sourcePoint"/>
                        <mxPoint x="565" y="480" as="targetPoint"/>
                    </mxGeometry>
                </mxCell>
                <mxCell id="27" value="" style="endArrow=block;startArrow=none;endFill=0;startFill=0;endSize=8;html=1;verticalAlign=bottom;dashed=1;labelBackgroundColor=none;" edge="1" parent="1" source="20">
                    <mxGeometry width="160" relative="1" as="geometry">
                        <mxPoint x="425" y="480" as="sourcePoint"/>
                        <mxPoint x="585" y="480" as="targetPoint"/>
                        <Array as="points"/>
                    </mxGeometry>
                </mxCell>
                <mxCell id="28" value="" style="endArrow=none;dashed=1;html=1;exitX=-0.066;exitY=0.078;exitDx=0;exitDy=0;exitPerimeter=0;startArrow=none;" edge="1" parent="1" source="30" target="20">
                    <mxGeometry width="50" height="50" relative="1" as="geometry">
                        <mxPoint x="405" y="485" as="sourcePoint"/>
                        <mxPoint x="455" y="435" as="targetPoint"/>
                        <Array as="points">
                            <mxPoint x="480" y="471"/>
                            <mxPoint x="590" y="471"/>
                        </Array>
                    </mxGeometry>
                </mxCell>
                <mxCell id="30" value="[else]" style="text;html=1;align=center;verticalAlign=middle;resizable=0;points=[];autosize=1;strokeColor=none;fillColor=none;" vertex="1" parent="1">
                    <mxGeometry x="405" y="470" width="40" height="20" as="geometry"/>
                </mxCell>
                <mxCell id="31" value="" style="endArrow=none;dashed=1;html=1;exitX=-0.011;exitY=0.554;exitDx=0;exitDy=0;exitPerimeter=0;" edge="1" parent="1" source="20" target="30">
                    <mxGeometry width="50" height="50" relative="1" as="geometry">
                        <mxPoint x="403.02" y="470.80000000000007" as="sourcePoint"/>
                        <mxPoint x="585" y="470.42105263157896" as="targetPoint"/>
                        <Array as="points"/>
                    </mxGeometry>
                </mxCell>
                <mxCell id="32" value="forall artnr. in artikel&amp;nbsp;" style="shape=umlFrame;whiteSpace=wrap;html=1;width=120;height=30;boundedLbl=1;verticalAlign=middle;align=left;spacingLeft=5;" vertex="1" parent="1">
                    <mxGeometry x="405" y="330" width="260" height="240" as="geometry"/>
                </mxCell>
                <mxCell id="40" value="benachrichtigung&lt;br&gt;(bestell_ID)" style="endArrow=open;startArrow=none;endFill=0;startFill=0;endSize=8;html=1;verticalAlign=bottom;labelBackgroundColor=none;" edge="1" parent="1" target="5">
                    <mxGeometry width="160" relative="1" as="geometry">
                        <mxPoint x="270" y="840" as="sourcePoint"/>
                        <mxPoint x="430" y="840" as="targetPoint"/>
                    </mxGeometry>
                </mxCell>
                <mxCell id="41" value="sd Bestellvorgang" style="shape=umlFrame;whiteSpace=wrap;html=1;width=120;height=30;boundedLbl=1;verticalAlign=middle;align=left;spacingLeft=5;" vertex="1" parent="1">
                    <mxGeometry x="10" y="150" width="740" height="730" as="geometry"/>
                </mxCell>
            </root>
        </mxGraphModel>
    </diagram>
    <diagram id="f24yVrYNJeO8Xoa_h3ES" name="Seite-2">
        <mxGraphModel dx="1374" dy="790" grid="1" gridSize="10" guides="1" tooltips="1" connect="1" arrows="1" fold="1" page="1" pageScale="1" pageWidth="827" pageHeight="1169" math="0" shadow="0">
            <root>
                <mxCell id="RaauEZaa70V7kegduCJs-0"/>
                <mxCell id="RaauEZaa70V7kegduCJs-1" parent="RaauEZaa70V7kegduCJs-0"/>
                <mxCell id="RaauEZaa70V7kegduCJs-2" value="{abstract}&#10;Hotelzimmer" style="swimlane;fontStyle=1;align=center;verticalAlign=top;childLayout=stackLayout;horizontal=1;startSize=40;horizontalStack=0;resizeParent=1;resizeParentMax=0;resizeLast=0;collapsible=1;marginBottom=0;" vertex="1" parent="RaauEZaa70V7kegduCJs-1">
                    <mxGeometry x="320" y="470" width="194" height="130" as="geometry">
                        <mxRectangle x="300" y="220" width="90" height="26" as="alternateBounds"/>
                    </mxGeometry>
                </mxCell>
                <mxCell id="RaauEZaa70V7kegduCJs-3" value="-preis: Integer&#10;-ausstattung: Ausstattungsstücke" style="text;strokeColor=none;fillColor=none;align=left;verticalAlign=top;spacingLeft=4;spacingRight=4;overflow=hidden;rotatable=0;points=[[0,0.5],[1,0.5]];portConstraint=eastwest;" vertex="1" parent="RaauEZaa70V7kegduCJs-2">
                    <mxGeometry y="40" width="194" height="40" as="geometry"/>
                </mxCell>
                <mxCell id="RaauEZaa70V7kegduCJs-4" value="" style="line;strokeWidth=1;fillColor=none;align=left;verticalAlign=middle;spacingTop=-1;spacingLeft=3;spacingRight=3;rotatable=0;labelPosition=right;points=[];portConstraint=eastwest;" vertex="1" parent="RaauEZaa70V7kegduCJs-2">
                    <mxGeometry y="80" width="194" height="8" as="geometry"/>
                </mxCell>
                <mxCell id="RaauEZaa70V7kegduCJs-5" value="+ buchen()&#10;+ belegen()" style="text;strokeColor=none;fillColor=none;align=left;verticalAlign=top;spacingLeft=4;spacingRight=4;overflow=hidden;rotatable=0;points=[[0,0.5],[1,0.5]];portConstraint=eastwest;connectable=1;snapToPoint=0;dropTarget=0;" vertex="1" parent="RaauEZaa70V7kegduCJs-2">
                    <mxGeometry y="88" width="194" height="42" as="geometry"/>
                </mxCell>
                <mxCell id="RaauEZaa70V7kegduCJs-7" value="Einzelzimmer" style="swimlane;fontStyle=0;childLayout=stackLayout;horizontal=1;startSize=26;fillColor=none;horizontalStack=0;resizeParent=1;resizeParentMax=0;resizeLast=0;collapsible=1;marginBottom=0;" vertex="1" parent="RaauEZaa70V7kegduCJs-1">
                    <mxGeometry x="120" y="695" width="140" height="52" as="geometry"/>
                </mxCell>
                <mxCell id="RaauEZaa70V7kegduCJs-25" style="edgeStyle=orthogonalEdgeStyle;html=1;exitX=0.5;exitY=0;exitDx=0;exitDy=0;endArrow=none;endFill=0;" edge="1" parent="RaauEZaa70V7kegduCJs-1" source="RaauEZaa70V7kegduCJs-13">
                    <mxGeometry relative="1" as="geometry">
                        <mxPoint x="420" y="610" as="targetPoint"/>
                    </mxGeometry>
                </mxCell>
                <mxCell id="RaauEZaa70V7kegduCJs-13" value="Doppelzimmer" style="swimlane;fontStyle=0;childLayout=stackLayout;horizontal=1;startSize=26;fillColor=none;horizontalStack=0;resizeParent=1;resizeParentMax=0;resizeLast=0;collapsible=1;marginBottom=0;" vertex="1" parent="RaauEZaa70V7kegduCJs-1">
                    <mxGeometry x="270" y="695" width="140" height="52" as="geometry"/>
                </mxCell>
                <mxCell id="RaauEZaa70V7kegduCJs-14" value="-zuschlag: Integer" style="text;strokeColor=none;fillColor=none;align=left;verticalAlign=top;spacingLeft=4;spacingRight=4;overflow=hidden;rotatable=0;points=[[0,0.5],[1,0.5]];portConstraint=eastwest;" vertex="1" parent="RaauEZaa70V7kegduCJs-13">
                    <mxGeometry y="26" width="140" height="26" as="geometry"/>
                </mxCell>
                <mxCell id="RaauEZaa70V7kegduCJs-26" style="edgeStyle=orthogonalEdgeStyle;html=1;exitX=0.5;exitY=0;exitDx=0;exitDy=0;endArrow=none;endFill=0;" edge="1" parent="RaauEZaa70V7kegduCJs-1" source="RaauEZaa70V7kegduCJs-15">
                    <mxGeometry relative="1" as="geometry">
                        <mxPoint x="420" y="610" as="targetPoint"/>
                    </mxGeometry>
                </mxCell>
                <mxCell id="RaauEZaa70V7kegduCJs-15" value="Suite" style="swimlane;fontStyle=0;childLayout=stackLayout;horizontal=1;startSize=26;fillColor=none;horizontalStack=0;resizeParent=1;resizeParentMax=0;resizeLast=0;collapsible=1;marginBottom=0;" vertex="1" parent="RaauEZaa70V7kegduCJs-1">
                    <mxGeometry x="420" y="695" width="140" height="52" as="geometry"/>
                </mxCell>
                <mxCell id="RaauEZaa70V7kegduCJs-16" value="-zuschlag: Integer" style="text;strokeColor=none;fillColor=none;align=left;verticalAlign=top;spacingLeft=4;spacingRight=4;overflow=hidden;rotatable=0;points=[[0,0.5],[1,0.5]];portConstraint=eastwest;" vertex="1" parent="RaauEZaa70V7kegduCJs-15">
                    <mxGeometry y="26" width="140" height="26" as="geometry"/>
                </mxCell>
                <mxCell id="RaauEZaa70V7kegduCJs-27" style="edgeStyle=orthogonalEdgeStyle;html=1;exitX=0.5;exitY=0;exitDx=0;exitDy=0;endArrow=none;endFill=0;" edge="1" parent="RaauEZaa70V7kegduCJs-1" source="RaauEZaa70V7kegduCJs-17">
                    <mxGeometry relative="1" as="geometry">
                        <mxPoint x="420" y="610" as="targetPoint"/>
                    </mxGeometry>
                </mxCell>
                <mxCell id="RaauEZaa70V7kegduCJs-17" value="Präsidentensuite" style="swimlane;fontStyle=0;childLayout=stackLayout;horizontal=1;startSize=26;fillColor=none;horizontalStack=0;resizeParent=1;resizeParentMax=0;resizeLast=0;collapsible=1;marginBottom=0;" vertex="1" parent="RaauEZaa70V7kegduCJs-1">
                    <mxGeometry x="567" y="695" width="140" height="52" as="geometry"/>
                </mxCell>
                <mxCell id="RaauEZaa70V7kegduCJs-18" value="-zuschlag: Integer" style="text;strokeColor=none;fillColor=none;align=left;verticalAlign=top;spacingLeft=4;spacingRight=4;overflow=hidden;rotatable=0;points=[[0,0.5],[1,0.5]];portConstraint=eastwest;" vertex="1" parent="RaauEZaa70V7kegduCJs-17">
                    <mxGeometry y="26" width="140" height="26" as="geometry"/>
                </mxCell>
                <mxCell id="RaauEZaa70V7kegduCJs-23" style="edgeStyle=orthogonalEdgeStyle;html=1;exitX=0.5;exitY=0;exitDx=0;exitDy=0;entryX=0.51;entryY=1.024;entryDx=0;entryDy=0;entryPerimeter=0;endArrow=block;endFill=0;startSize=6;endSize=12;" edge="1" parent="RaauEZaa70V7kegduCJs-1" source="RaauEZaa70V7kegduCJs-7" target="RaauEZaa70V7kegduCJs-5">
                    <mxGeometry relative="1" as="geometry">
                        <Array as="points">
                            <mxPoint x="190" y="650"/>
                            <mxPoint x="419" y="650"/>
                        </Array>
                    </mxGeometry>
                </mxCell>
                <mxCell id="RaauEZaa70V7kegduCJs-28" value="Kunde" style="swimlane;fontStyle=0;childLayout=stackLayout;horizontal=1;startSize=26;fillColor=none;horizontalStack=0;resizeParent=1;resizeParentMax=0;resizeLast=0;collapsible=1;marginBottom=0;" vertex="1" parent="RaauEZaa70V7kegduCJs-1">
                    <mxGeometry x="40" y="120" width="140" height="78" as="geometry"/>
                </mxCell>
                <mxCell id="RaauEZaa70V7kegduCJs-29" value="-name: String" style="text;strokeColor=none;fillColor=none;align=left;verticalAlign=top;spacingLeft=4;spacingRight=4;overflow=hidden;rotatable=0;points=[[0,0.5],[1,0.5]];portConstraint=eastwest;" vertex="1" parent="RaauEZaa70V7kegduCJs-28">
                    <mxGeometry y="26" width="140" height="26" as="geometry"/>
                </mxCell>
                <mxCell id="RaauEZaa70V7kegduCJs-30" value="-kreditkarte: Integer" style="text;strokeColor=none;fillColor=none;align=left;verticalAlign=top;spacingLeft=4;spacingRight=4;overflow=hidden;rotatable=0;points=[[0,0.5],[1,0.5]];portConstraint=eastwest;" vertex="1" parent="RaauEZaa70V7kegduCJs-28">
                    <mxGeometry y="52" width="140" height="26" as="geometry"/>
                </mxCell>
                <mxCell id="RaauEZaa70V7kegduCJs-32" value="Rechnung" style="swimlane;fontStyle=0;childLayout=stackLayout;horizontal=1;startSize=26;fillColor=none;horizontalStack=0;resizeParent=1;resizeParentMax=0;resizeLast=0;collapsible=1;marginBottom=0;" vertex="1" parent="RaauEZaa70V7kegduCJs-1">
                    <mxGeometry x="320" y="120" width="140" height="104" as="geometry"/>
                </mxCell>
                <mxCell id="RaauEZaa70V7kegduCJs-33" value="+ field: type" style="text;strokeColor=none;fillColor=none;align=left;verticalAlign=top;spacingLeft=4;spacingRight=4;overflow=hidden;rotatable=0;points=[[0,0.5],[1,0.5]];portConstraint=eastwest;" vertex="1" parent="RaauEZaa70V7kegduCJs-32">
                    <mxGeometry y="26" width="140" height="26" as="geometry"/>
                </mxCell>
                <mxCell id="RaauEZaa70V7kegduCJs-34" value="+ field: type" style="text;strokeColor=none;fillColor=none;align=left;verticalAlign=top;spacingLeft=4;spacingRight=4;overflow=hidden;rotatable=0;points=[[0,0.5],[1,0.5]];portConstraint=eastwest;" vertex="1" parent="RaauEZaa70V7kegduCJs-32">
                    <mxGeometry y="52" width="140" height="26" as="geometry"/>
                </mxCell>
                <mxCell id="RaauEZaa70V7kegduCJs-35" value="+ field: type" style="text;strokeColor=none;fillColor=none;align=left;verticalAlign=top;spacingLeft=4;spacingRight=4;overflow=hidden;rotatable=0;points=[[0,0.5],[1,0.5]];portConstraint=eastwest;" vertex="1" parent="RaauEZaa70V7kegduCJs-32">
                    <mxGeometry y="78" width="140" height="26" as="geometry"/>
                </mxCell>
            </root>
        </mxGraphModel>
    </diagram>
</mxfile>